<svg width="24" height="22" viewBox="0 0 24 22" fill="none" xmlns="http://www.w3.org/2000/svg">
<path fill-rule="evenodd" clip-rule="evenodd" d="M10.587 1.69374e-05C10.6121 2.56397e-05 10.6376 3.44612e-05 10.6634 3.44612e-05H13.3367C13.3625 3.44612e-05 13.3879 2.56397e-05 13.413 1.69374e-05C13.882 -0.000146499 14.235 -0.000269402 14.574 0.05818C15.424 0.204717 16.2039 0.622096 16.7974 1.24807C17.0341 1.49776 17.2297 1.7915 17.4898 2.18184C17.5037 2.20273 17.5178 2.22389 17.5321 2.24533L17.6176 2.37358C17.7465 2.567 17.7736 2.60549 17.7978 2.63499C17.9657 2.83921 18.2076 2.96867 18.4706 2.99504C18.5086 2.99886 18.5556 3.00003 18.7881 3.00003C18.8184 3.00003 18.8482 3.00003 18.8776 3.00002C19.4523 2.99987 19.8586 2.99977 20.2159 3.05734C22.1318 3.36604 23.634 4.86825 23.9427 6.7842C24.0003 7.14147 24.0002 7.54774 24 8.12241C24 8.15181 24 8.18165 24 8.21195V12.5C24 13.0523 23.5523 13.5 23 13.5C22.4477 13.5 22 13.0523 22 12.5V8.21195C22 7.51169 21.9968 7.28 21.9682 7.10235C21.7967 6.03794 20.9621 5.20337 19.8977 5.03187C19.7201 5.00324 19.4884 5.00003 18.7881 5.00003C18.7758 5.00003 18.7637 5.00004 18.7516 5.00004C18.5758 5.00011 18.4218 5.00018 18.271 4.98506C17.482 4.90593 16.7563 4.51757 16.2528 3.90491C16.1566 3.7879 16.0712 3.65966 15.9737 3.51336C15.967 3.50332 15.9603 3.4932 15.9535 3.48299L15.868 3.35474C15.5471 2.87343 15.4498 2.73358 15.3459 2.62405C15.0492 2.31106 14.6593 2.10238 14.2343 2.02911C14.0855 2.00347 13.9152 2.00003 13.3367 2.00003H10.6634C10.0849 2.00003 9.91454 2.00347 9.76581 2.02911C9.3408 2.10238 8.95086 2.31107 8.65414 2.62405C8.55031 2.73358 8.45295 2.87343 8.13208 3.35473L8.04658 3.48298C8.03977 3.4932 8.03302 3.50332 8.02634 3.51337C7.92887 3.6597 7.84348 3.78789 7.7473 3.90491C7.24375 4.51757 6.5181 4.90593 5.72902 4.98506C5.5783 5.00018 5.42427 5.00011 5.24844 5.00004C5.23638 5.00004 5.22422 5.00003 5.21194 5.00003C4.51168 5.00003 4.27999 5.00324 4.10234 5.03187C3.03793 5.20337 2.20337 6.03793 2.03186 7.10235C2.00324 7.28 2.00003 7.51169 2.00003 8.21195V12C2.00003 13.4167 2.00081 14.419 2.06483 15.2026C2.1279 15.9745 2.24732 16.4457 2.436 16.816C2.8195 17.5686 3.43142 18.1806 4.18407 18.5641C4.55438 18.7527 5.02555 18.8722 5.79747 18.9352C6.58106 18.9993 7.5834 19 9.00003 19H13.5C14.0523 19 14.5 19.4478 14.5 20C14.5 20.5523 14.0523 21 13.5 21H8.95624C7.59321 21 6.50919 21 5.63461 20.9286C4.73901 20.8554 3.97533 20.7024 3.27609 20.3461C2.14711 19.7708 1.22923 18.853 0.653989 17.724C0.297705 17.0247 0.144645 16.2611 0.0714713 15.3655C1.4551e-05 14.4909 1.96762e-05 13.4068 2.77824e-05 12.0438V8.21195C2.77824e-05 8.18165 2.19411e-05 8.15182 1.4431e-05 8.12242C-0.000131839 7.54774 -0.000237219 7.14147 0.0573284 6.7842C0.366037 4.86826 1.86825 3.36604 3.78419 3.05734C4.14146 2.99977 4.54774 2.99987 5.12241 3.00002C5.15181 3.00003 5.18165 3.00003 5.21194 3.00003C5.44444 3.00003 5.49143 2.99886 5.52945 2.99504C5.79247 2.96867 6.03436 2.83921 6.20221 2.63499C6.22647 2.60548 6.25351 2.56703 6.38248 2.37358L6.46798 2.24533C6.48228 2.22388 6.49638 2.20272 6.51029 2.18183C6.77031 1.7915 6.966 1.49775 7.2027 1.24807C7.79614 0.622096 8.57601 0.204717 9.42603 0.05818C9.76508 -0.000269402 10.118 -0.000146499 10.587 1.69374e-05ZM12 8.00003C10.3432 8.00003 9.00003 9.34318 9.00003 11C9.00003 12.6569 10.3432 14 12 14C13.6569 14 15 12.6569 15 11C15 9.34318 13.6569 8.00003 12 8.00003ZM7.00003 11C7.00003 8.23861 9.23861 6.00003 12 6.00003C14.7615 6.00003 17 8.23861 17 11C17 13.7615 14.7615 16 12 16C9.23861 16 7.00003 13.7615 7.00003 11ZM20 14C20.5523 14 21 14.4477 21 15V17H23C23.5523 17 24 17.4478 24 18C24 18.5523 23.5523 19 23 19H21V21C21 21.5523 20.5523 22 20 22C19.4477 22 19 21.5523 19 21V19H17C16.4477 19 16 18.5523 16 18C16 17.4478 16.4477 17 17 17H19V15C19 14.4477 19.4477 14 20 14Z" fill="#2F6FED"/>
</svg>
